# xmcd CD database file
#
# Track frame offsets:
#	150
#	18625
#	43131
#	83124
#	110337
#	129492
#	160399
#	180303
#	201555
#	227809
#	259310
#
# Disc length: 3727 seconds
#
# Revision: 0
# Processed by: cddbd v1.4PL0 Copyright (c) Steve Scherf et al.
# Submitted via: CDex 1.50
#
DISCID=970e8d0b
DTITLE=four fourty - messages
DYEAR=2000
DGENRE=Jazz
TTITLE0=Tshegofatso
TTITLE1=Church People
TTITLE2=Song For You
TTITLE3=Song For My Mother
TTITLE4=Kgetshape
TTITLE5=Messages
TTITLE6=I Love You
TTITLE7=Vic-Shep-Fakes
TTITLE8=Smooth Survivor
TTITLE9=A Portrait Of Portia
TTITLE10=Micador
EXTD=YEAR: 2000
EXTT0=
EXTT1=
EXTT2=
EXTT3=
EXTT4=
EXTT5=
EXTT6=
EXTT7=
EXTT8=
EXTT9=
EXTT10=
PLAYORDER=
